<?xml version="1.0" standalone="no"?>
<!DOCTYPE svg PUBLIC "-//W3C//DTD SVG 20010904//EN"
 "http://www.w3.org/TR/2001/REC-SVG-20010904/DTD/svg10.dtd">
<svg version="1.0" xmlns="http://www.w3.org/2000/svg"
 width="1080.000000pt" height="1080.000000pt" viewBox="0 0 1080.000000 1080.000000"
 preserveAspectRatio="xMidYMid meet">
<metadata>
Created by potrace 1.14, written by Peter Selinger 2001-2017
</metadata>
<g transform="translate(0.000000,1080.000000) scale(0.100000,-0.100000)"
fill="#000000" stroke="none">
<path d="M933 8532 l-33 -3 0 -1075 0 -1074 558 0 c3118 -2 5388 -16 5477 -33
11 -3 43 -8 70 -11 185 -25 371 -110 475 -216 127 -129 196 -288 228 -520 9
-71 9 -378 0 -452 -29 -221 -117 -392 -264 -508 -120 -96 -380 -185 -623 -215
-30 -4 -63 -9 -75 -11 -19 -4 -92 -11 -191 -18 -193 -16 -630 -19 -2770 -21
-2158 -2 -2586 -5 -2735 -20 -19 -2 -61 -4 -93 -4 l-57 -1 2 -1011 3 -1011 50
-26 49 -26 731 -3 c2524 -10 4389 -6 5420 12 289 5 409 13 545 35 30 6 73 12
95 16 22 3 67 12 100 21 33 8 69 17 79 19 33 6 200 57 216 65 8 4 44 19 80 32
438 167 818 492 1071 914 232 390 403 826 488 1248 30 149 38 201 61 420 8 79
6 592 -3 650 -3 17 -8 58 -12 93 -3 35 -8 71 -10 81 -2 10 -6 42 -10 71 -4 29
-9 62 -12 74 -3 12 -9 44 -14 71 -15 85 -77 331 -110 433 -36 114 -132 375
-164 447 -12 27 -28 66 -36 85 -50 124 -174 340 -289 505 -66 94 -243 279
-355 371 -46 38 -238 170 -295 203 -265 153 -680 287 -1041 336 -25 3 -57 7
-70 10 -13 2 -51 6 -84 10 -33 3 -78 8 -100 10 -72 8 -177 15 -335 21 -152 7
-5954 12 -6017 6z"/>
</g>
</svg>
